<svg width="208" height="88" viewBox="0 0 208 88" fill="none" xmlns="http://www.w3.org/2000/svg">
<mask id="mask0_11_15" style="mask-type:luminance" maskUnits="userSpaceOnUse" x="0" y="0" width="88" height="88">
<path d="M0 0H87.6562V88H0V0Z" fill="white"/>
</mask>
<g mask="url(#mask0_11_15)">
<path d="M43.6562 0C67.9167 0 87.6562 19.7396 87.6562 44C87.6562 68.2604 67.9167 88 43.6562 88C19.3906 88 -0.34375 68.2604 -0.34375 44C-0.34375 19.7396 19.3906 0 43.6562 0ZM43.7135 31.2969C43.8333 31.3073 44.224 31.3854 45.0677 31.8542C47.8646 33.4219 50.5677 35.099 53.3333 36.6979C54.3854 37.3021 54.7865 38 54.7604 39.1875C54.6719 42.1875 54.7188 44.4427 54.75 46.0938C54.7969 48.4167 54.8229 49.6979 54.4427 50.3646C54.0625 51.0312 52.9479 51.6667 50.9219 52.8229C49.5573 53.599 47.6875 54.6667 45.2969 56.1771C44.1719 56.8906 43.3542 56.8906 42.1719 56.1771C36.0417 52.4896 29.3958 48.5208 22.3542 44.4531C21.5 43.9219 20.3021 44.6146 20.3333 45.6198C20.3333 46.6094 20.3177 47.5781 20.3021 48.5365C20.2604 51.0312 20.2188 53.3906 20.4531 55.7865C20.6094 57.4115 22.1094 59.0365 23.4427 59.8646C29.0625 63.3542 34.7031 66.599 40.3385 69.9479C41.4531 70.6094 42.5781 70.9427 43.7083 70.9427C44.8594 70.9427 46.0156 70.599 47.1667 69.9115C52.4635 66.7552 57.9271 63.5208 63.8802 60.0312C66.2031 58.6615 67.3229 56.625 67.3021 53.7969C67.25 47.5156 67.25 41.1042 67.3021 34.1927C67.3177 31.5417 66.3177 29.599 64.3229 28.4167C59.6667 25.651 54.9896 22.9219 50.3073 20.1927L45.2656 17.2448C45.0573 17.125 44.8281 17.0625 44.5885 17.0625H42.8073C40.875 17.651 38.5 19.5104 36.5677 20.474C32.1875 23.0052 27.6562 25.625 23.2552 28.3073C19.0469 30.6667 18.9375 37.5625 23.1302 39.9844C28.7708 43.4896 34.6094 46.8594 40.25 50.1146L42.0104 51.1302C43.6823 51.9271 45.5 51.3438 46.7448 50.4062C50.4531 48.224 51.6562 45.2656 50.5312 41.099C50.2188 39.9479 49.1198 39.1302 48.4948 38.75C45.6719 37.0156 42.6458 35.2344 39.6406 33.4479C41.1094 32.6042 42.3854 31.875 43.7135 31.2969ZM47.9323 41.8125C47.8958 41.7083 47.6302 41.3802 47.0885 41.0417C44.5729 39.5 42 37.974 39.276 36.3594L36.2708 34.5781C35.3906 34.0885 35.4115 32.6979 36.3073 32.2396C38.4635 31.0521 40.5573 29.724 42.7396 28.7865C43.651 28.3958 44.8125 28.6198 46.3854 29.5052C49.2083 31.0833 51.901 32.7604 54.6823 34.3646C56.5677 35.4479 57.5 37.0938 57.4583 39.2552C57.3698 42.1979 57.4115 44.4167 57.4479 46.0365C57.5625 51.8542 57.3177 52.276 52.2604 55.1615C50.8385 55.9688 49.0729 56.9792 46.7396 58.4531C44.7604 59.7083 42.8125 59.7135 40.7865 58.4844C35.25 55.1562 29.2917 51.599 23.0052 47.9427C22.9688 50.5312 22.8958 53.099 23.1354 55.526C23.1823 56.0052 23.9479 57.0052 24.8646 57.5729C28.7865 60.0104 32.8385 62.3958 36.7552 64.7031C38.4115 65.6771 40.0625 66.651 41.7135 67.6302C43.1042 68.4583 44.3646 68.4479 45.7865 67.599C51.0885 64.4375 56.5625 61.2031 62.5156 57.7031C64 56.8385 64.625 55.6719 64.6094 53.8177C64.5625 47.526 64.5625 41.099 64.6094 34.1719C64.625 31.9792 63.6719 31.1562 62.9531 30.7344C58.2969 27.974 53.625 25.2448 48.9531 22.5208L44.224 19.7552H43.1719C41.4219 20.776 39.6667 21.7917 37.9167 22.8073C33.5469 25.3281 29.0312 27.9427 24.6562 30.6042C22.151 32.0052 22.0417 36.25 24.5573 37.6927C30.1563 41.1771 35.974 44.5365 41.599 47.7812L43.3177 48.776C43.5365 48.849 44.224 48.7135 44.4427 48.6719C44.6979 48.5573 45.099 48.2448 45.3802 48.0833C48.0156 46.5312 48.7344 44.7708 47.9323 41.8125Z" fill="#FCA311"/>
</g>
<path d="M118.354 32.9792C115.812 32.9792 113.792 33.9792 112.292 35.9792C110.792 37.9688 110.042 40.7917 110.042 44.4583C110.042 47.9323 110.75 50.6875 112.167 52.7292C113.594 54.7604 115.609 55.7708 118.208 55.7708C120.135 55.7708 121.729 55.2448 122.979 54.1875C124.24 53.1354 125.089 51.5938 125.521 49.5625H132.417C131.651 53.4948 130.021 56.5104 127.521 58.6042C125.021 60.7031 121.875 61.75 118.083 61.75C115.01 61.75 112.344 61.0521 110.083 59.6667C107.818 58.2656 106.068 56.2656 104.833 53.6667C103.609 51.0573 103 47.974 103 44.4167C103 40.8646 103.63 37.7813 104.896 35.1667C106.172 32.5417 107.958 30.5313 110.25 29.125C112.552 27.7083 115.208 27 118.208 27C120.818 27 123.167 27.5104 125.25 28.5208C127.333 29.5365 128.99 30.9271 130.229 32.6875C131.464 34.4375 132.193 36.4375 132.417 38.6875H125.521C124.63 34.8854 122.24 32.9792 118.354 32.9792Z" fill="#FCA311"/>
<path d="M162.958 38.3958C162.958 40.3281 162.542 42.099 161.708 43.7083C160.886 45.3229 159.698 46.6042 158.146 47.5625C156.604 48.5104 154.792 48.9792 152.708 48.9792H144.542V60.875H137.646V27.875H152.708C155.901 27.875 158.406 28.8281 160.229 30.7292C162.047 32.6354 162.958 35.1875 162.958 38.3958ZM156.063 38.125C156.063 36.5 155.594 35.3437 154.667 34.6458C153.735 33.9375 152.255 33.5833 150.229 33.5833H144.542V43.2708H151.104C154.406 43.2708 156.063 41.5573 156.063 38.125Z" fill="#FCA311"/>
<path d="M166.036 51.0002V45.021H178.849V51.0002H166.036Z" fill="#FCA311"/>
<path d="M197.583 33.7083V60.875H190.708V33.7083H180.729V27.875H207.562V33.7083H197.583Z" fill="#FCA311"/>
</svg>
